<?xml version="1.0" encoding="utf-8"?>
<!-- Generator: Adobe Illustrator 12.0.0, SVG Export Plug-In . SVG Version: 6.00 Build 51448)  -->
<!DOCTYPE svg PUBLIC "-//W3C//DTD SVG 1.0//EN" "http://www.w3.org/TR/2001/REC-SVG-20010904/DTD/svg10.dtd" [
	<!ENTITY ns_svg "http://www.w3.org/2000/svg">
	<!ENTITY ns_xlink "http://www.w3.org/1999/xlink">
]>
<svg  version="1.0" id="Layer_1" xmlns="&ns_svg;" xmlns:xlink="&ns_xlink;" width="87" height="60.563" viewBox="0 0 87 60.563"
	 overflow="visible" enable-background="new 0 0 87 60.563" xml:space="preserve">
<g>
	<rect y="0.063" fill="none" width="87" height="60.5"/>
	<path d="M76.852,0v53.684h-7.594V37.477H59.203c-4.219,11.766-14.637,17.648-31.254,17.648c-5.813,0-11.016-1.008-15.609-3.023
		c-5.977-2.625-8.965-6.469-8.965-11.531c0-1.43,0.305-2.719,0.914-3.867s1.459-2.127,2.549-2.936s2.385-1.424,3.885-1.846
		s3.152-0.633,4.957-0.633h37.723c0.141-1.828,0.211-3.293,0.211-4.395c0-2.156-0.158-4.207-0.475-6.152s-0.809-3.703-1.477-5.273
		s-1.523-2.924-2.566-4.061s-2.279-1.986-3.709-2.549c0.422,0.422,0.785,1.002,1.09,1.74s0.551,1.482,0.738,2.232
		s0.328,1.436,0.422,2.057s0.141,1.025,0.141,1.213c0,2.086-0.322,3.926-0.967,5.52s-1.5,2.924-2.566,3.99s-2.303,1.869-3.709,2.408
		s-2.871,0.809-4.395,0.809c-1.781,0-3.439-0.217-4.975-0.65s-2.865-1.148-3.99-2.145s-2.004-2.303-2.637-3.92
		s-0.949-3.621-0.949-6.012c0-1.031,0.123-2.104,0.369-3.217s0.633-2.203,1.16-3.27s1.201-2.074,2.021-3.023
		s1.793-1.775,2.918-2.479s2.408-1.266,3.85-1.688s3.064-0.633,4.869-0.633c3,0,5.842,0.451,8.525,1.354s5.039,2.379,7.066,4.43
		s3.639,4.729,4.834,8.033s1.805,7.359,1.828,12.164c0,0.539-0.018,1.102-0.053,1.688s-0.076,1.195-0.123,1.828h8.402V0H76.852z
		 M51.504,37.477h-37.09c-0.516,0-0.984,0.1-1.406,0.299s-0.785,0.475-1.09,0.826s-0.539,0.762-0.703,1.23s-0.246,0.961-0.246,1.477
		c0,2.766,2.59,4.84,7.77,6.223c3.516,0.938,7.242,1.406,11.18,1.406c5.273,0,9.504-0.762,12.691-2.285
		C46.289,44.871,49.254,41.813,51.504,37.477z M41.063,16.102c0-0.492-0.105-1.09-0.316-1.793s-0.527-1.383-0.949-2.039
		s-0.949-1.219-1.582-1.688s-1.359-0.703-2.18-0.703c-0.984,0-1.816,0.182-2.496,0.545s-1.23,0.832-1.652,1.406
		s-0.727,1.236-0.914,1.986s-0.281,1.512-0.281,2.285c0,1.242,0.164,2.291,0.492,3.146s0.756,1.541,1.283,2.057
		s1.131,0.885,1.811,1.107s1.383,0.334,2.109,0.334c0.633,0,1.23-0.088,1.793-0.264s1.055-0.51,1.477-1.002s0.762-1.166,1.02-2.021
		S41.063,17.484,41.063,16.102z"/>
</g>
</svg>
